<svg xmlns="http://www.w3.org/2000/svg"  viewBox="0 0 100 100" width="100px" height="100px" baseProfile="basic"><path fill="#81d4fa" d="M16.776,32.619c22.15,0.508,44.299,0.508,66.449,0c1.105-0.027,2.416-1.008,2.784-2.19	c1.321-4.286,1.321-8.571,0-12.857c-0.367-1.182-1.679-2.164-2.784-2.19c-22.15-0.508-44.299-0.508-66.449,0	c-1.105,0.026-2.417,1.009-2.784,2.19c-1.321,4.286-1.321,8.571,0,12.857C14.359,31.61,15.671,32.592,16.776,32.619z"/><path fill="#81d4fa" d="M16.776,58.619c22.15,0.508,44.299,0.508,66.449,0c1.105-0.027,2.416-1.009,2.784-2.19	c1.321-4.286,1.321-8.571,0-12.857c-0.367-1.182-1.679-2.164-2.784-2.19c-22.15-0.508-44.299-0.508-66.449,0	c-1.105,0.026-2.417,1.009-2.784,2.19c-1.321,4.286-1.321,8.571,0,12.857C14.359,57.611,15.671,58.592,16.776,58.619z"/><path fill="#81d4fa" d="M16.776,84.619c22.15,0.508,44.299,0.508,66.449,0c1.105-0.026,2.416-1.009,2.784-2.19	c1.321-4.286,1.321-8.571,0-12.857c-0.368-1.183-1.679-2.164-2.784-2.19c-22.15-0.508-44.299-0.508-66.449,0	c-1.105,0.027-2.417,1.008-2.784,2.19c-1.321,4.286-1.321,8.571,0,12.857C14.359,83.611,15.671,84.593,16.776,84.619z"/><path fill="#4a254b" d="M50,56.48c1.738,0,3.17-1.309,3.364-2.996c0.024-0.206-0.127-0.39-0.335-0.39	c-1.171,0-4.886,0-6.057,0c-0.207,0-0.358,0.184-0.335,0.39C46.83,55.17,48.262,56.48,50,56.48z"/><circle cx="57.795" cy="47.897" r="3.897" fill="#fff"/><circle cx="58.621" cy="46.913" r="1.772" fill="#4a254b"/><circle cx="42.205" cy="47.897" r="3.897" fill="#fff"/><circle cx="43.032" cy="46.913" r="1.772" fill="#4a254b"/><path fill="#4a254b" d="M50,30.611c1.756,0,3.204-1.323,3.399-3.027c0.024-0.208-0.129-0.394-0.338-0.394	c-1.183,0-4.938,0-6.121,0c-0.21,0-0.362,0.186-0.338,0.394C46.796,29.288,48.244,30.611,50,30.611z"/><circle cx="57.877" cy="21.938" r="3.938" fill="#fff"/><circle cx="57.877" cy="23.258" r="1.79" fill="#4a254b"/><circle cx="42.123" cy="21.938" r="3.938" fill="#fff"/><circle cx="42.123" cy="23.258" r="1.79" fill="#4a254b"/><path fill="#4a254b" d="M50,82.611c1.756,0,3.204-1.323,3.399-3.027c0.024-0.208-0.129-0.394-0.338-0.394	c-1.183,0-4.938,0-6.121,0c-0.21,0-0.362,0.186-0.338,0.394C46.796,81.288,48.244,82.611,50,82.611z"/><circle cx="57.877" cy="73.938" r="3.938" fill="#fff"/><circle cx="57.877" cy="73.938" r="1.79" fill="#4a254b"/><circle cx="42.123" cy="73.938" r="3.938" fill="#fff"/><circle cx="42.123" cy="73.938" r="1.79" fill="#4a254b"/></svg>